<?xml version="1.0" encoding="UTF-8"?>
<svg xmlns="http://www.w3.org/2000/svg" xmlns:xlink="http://www.w3.org/1999/xlink" viewBox="0 0 50 50" width="50px" height="50px">
<g id="surface11561696">
<path style=" stroke:none;fill-rule:nonzero;fill:rgb(100%,100%,100%);fill-opacity:1;" d="M 5 4 C 3.355469 4 2 5.355469 2 7 L 2 43 C 2 44.644531 3.355469 46 5 46 L 45 46 C 46.644531 46 48 44.644531 48 43 L 48 11 C 48 9.355469 46.644531 8 45 8 L 18 8 C 18.085938 8 17.96875 8 17.722656 7.71875 C 17.480469 7.4375 17.179688 6.96875 16.867188 6.46875 C 16.550781 5.96875 16.222656 5.433594 15.808594 4.964844 C 15.390625 4.492188 14.820312 4 14 4 Z M 5 6 L 14 6 C 13.9375 6 14.0625 6.007812 14.308594 6.285156 C 14.554688 6.566406 14.855469 7.03125 15.167969 7.53125 C 15.484375 8.03125 15.804688 8.5625 16.210938 9.03125 C 16.621094 9.5 17.179688 10 18 10 L 45 10 C 45.5625 10 46 10.4375 46 11 L 46 13.1875 C 45.683594 13.074219 45.351562 13 45 13 L 5 13 C 4.648438 13 4.316406 13.074219 4 13.1875 L 4 7 C 4 6.4375 4.4375 6 5 6 Z M 5 15 L 45 15 C 45.566406 15 46 15.433594 46 16 L 46 43 C 46 43.5625 45.5625 44 45 44 L 5 44 C 4.4375 44 4 43.5625 4 43 L 4 16 C 4 15.433594 4.433594 15 5 15 Z M 5 15 "/>
</g>
</svg>
